<?xml version="1.0" encoding="UTF-8"?>
<svg id="Layer_1" data-name="Layer 1" xmlns="http://www.w3.org/2000/svg" viewBox="0 0 329.28 105.76">
  <defs>
    <style>
      .cls-1 {
        fill: #fdcba5;
        stroke: #f57e2c;
      }

      .cls-1, .cls-2, .cls-3, .cls-4 {
        stroke-miterlimit: 10;
        stroke-width: 4px;
      }

      .cls-2 {
        fill: #fcf49d;
        stroke: #fdee1e;
      }

      .cls-5 {
        fill: #1bad4b;
      }

      .cls-6, .cls-3 {
        fill: #fff;
      }

      .cls-3 {
        stroke: #eaeaea;
      }

      .cls-7, .cls-8 {
        fill: #eaeaea;
      }

      .cls-7, .cls-9 {
        font-family: MyriadPro-Bold, 'Myriad Pro';
        font-size: 34px;
        font-weight: 700;
      }

      .cls-10 {
        fill: #94606f;
      }

      .cls-11 {
        letter-spacing: 0em;
      }

      .cls-9, .cls-12 {
        fill: #231f20;
      }

      .cls-13 {
        fill: #ed2027;
      }

      .cls-4 {
        fill: #c5e2b5;
        stroke: #1bad4b;
      }

      .cls-14 {
        letter-spacing: 0em;
      }

      .cls-12 {
        font-family: MyriadPro-Regular, 'Myriad Pro';
        font-size: 22px;
      }
    </style>
  </defs>
  <text class="cls-12" transform="translate(20.1 98.95)"><tspan x="0" y="0">Lic</tspan><tspan class="cls-14" x="25.39" y="0">h</tspan><tspan x="37.51" y="0">t</tspan></text>
  <text class="cls-12" transform="translate(268.91 98.95)"><tspan class="cls-11" x="0" y="0">Z</tspan><tspan class="cls-14" x="11.97" y="0">w</tspan><tspan x="28.07" y="0">aar</tspan></text>
  <polygon class="cls-4" points="61.22 53.3 61.22 19.3 31.78 2.31 2.34 19.3 2.34 53.3 31.78 70.29 61.22 53.3"/>
  <polygon class="cls-2" points="127.74 53.3 127.74 19.3 98.3 2.31 68.86 19.3 68.86 53.3 98.3 70.29 127.74 53.3"/>
  <polygon class="cls-1" points="194.26 53.3 194.26 19.3 164.82 2.31 135.38 19.3 135.38 53.3 164.82 70.29 194.26 53.3"/>
  <polygon class="cls-3" points="260.78 53.3 260.78 19.3 231.34 2.31 201.91 19.3 201.91 53.3 231.34 70.29 260.78 53.3"/>
  <polygon class="cls-3" points="327.3 53.3 327.3 19.3 297.86 2.31 268.43 19.3 268.43 53.3 297.86 70.29 327.3 53.3"/>
  <text class="cls-9" transform="translate(22.35 48.37)"><tspan x="0" y="0">0</tspan></text>
  <text class="cls-9" transform="translate(88.87 48.37)"><tspan x="0" y="0">1</tspan></text>
  <text class="cls-9" transform="translate(155.39 48.37)"><tspan x="0" y="0">2</tspan></text>
  <text class="cls-7" transform="translate(221.91 48.37)"><tspan x="0" y="0">3</tspan></text>
  <text class="cls-7" transform="translate(288.43 48.37)"><tspan x="0" y="0">4</tspan></text>
  <circle class="cls-5" cx="7.19" cy="91.14" r="7.19"/>
  <circle class="cls-13" cx="256" cy="91.14" r="7.19"/>
  <g>
    <g>
      <polygon class="cls-6" points="194.36 19.3 194.36 53.3 164.92 70.29 164.92 44.12 164.25 44.12 164.25 44.05 164.92 43.49 164.92 2.31 194.36 19.3"/>
      <path class="cls-8" d="M164.92,0v4.62l27.44,15.84v31.68l-27.44,15.84v4.62l31.44-18.15V18.15L164.92,0Z"/>
    </g>
    <path class="cls-8" d="M164.92,44.12v4.25h7.66v-4.25h-7.66ZM172.17,32.83c0-3.87-2.57-6.73-7.25-6.91v4.35c1.45.46,2.09,1.62,2.09,3.01-.04,1.37-.72,2.72-2.09,4.34v5.87l1.37-1.14c3.2-2.85,5.88-5.81,5.88-9.52Z"/>
    <polygon class="cls-10" points="164.92 43.49 164.92 44.12 164.25 44.12 164.25 44.05 164.92 43.49"/>
  </g>
</svg>